<svg width="40" height="38" viewBox="0 0 40 38" fill="none" xmlns="http://www.w3.org/2000/svg">
<path d="M29.5407 12.0162C29.2153 11.9249 28.8649 11.9264 28.5294 12.0205C28.1938 12.1147 27.8867 12.2977 27.643 12.5487L23.1 17.1974L17.7547 13.0931C17.5016 12.9029 17.1975 12.7848 16.8733 12.7506C16.5491 12.7165 16.2164 12.7676 15.9091 12.8987C15.6018 13.0298 15.3308 13.2362 15.1239 13.497C14.9169 13.7577 14.7813 14.0635 14.7309 14.3831L13.7263 21.1965L7.34056 21.2103C6.99638 21.2103 6.65346 21.3045 6.35057 21.4823C6.04769 21.6601 5.7969 21.9144 5.62658 22.2164C5.45625 22.5184 5.37318 22.8561 5.38674 23.1914C5.4003 23.5266 5.50997 23.8459 5.70334 24.1133L12.8813 34.0977C13.0196 34.2913 13.1984 34.4531 13.4069 34.5733C13.6153 34.6935 13.8491 34.7696 14.094 34.797C14.4264 34.8361 14.7687 34.7858 15.0846 34.6515C15.2379 34.5858 15.3823 34.4998 15.5135 34.3962C19.9892 30.9448 25.2704 28.6917 30.7944 27.877C31.2964 27.7967 31.7569 27.5266 32.0747 27.126C32.2317 26.9288 32.3471 26.7042 32.4134 26.4665C32.4798 26.2288 32.4957 25.983 32.4602 25.7448L30.779 13.4154C30.7337 13.0847 30.5937 12.7785 30.3748 12.5313C30.156 12.284 29.8671 12.1056 29.5407 12.0162Z" fill="#FFAA00"/>
<circle cx="15.2422" cy="10.1732" r="4" transform="rotate(-22.3875 15.2422 10.1732)" fill="#FFAA00"/>
<circle cx="20.5743" cy="23.118" r="3" transform="rotate(-22.3875 20.5743 23.118)" fill="#BE9502"/>
<circle cx="31.1249" cy="10.6607" r="2.5" transform="rotate(-22.3875 31.1249 10.6607)" fill="#FFAA00"/>
<circle cx="4.31068" cy="21.706" r="2.5" transform="rotate(-22.3875 4.31068 21.706)" fill="#FFAA00"/>
<circle cx="14.2109" cy="27.3615" r="1.5" transform="rotate(-22.3875 14.2109 27.3615)" fill="#BE9502"/>
<circle cx="28.0803" cy="21.6485" r="1.5" transform="rotate(-22.3875 28.0803 21.6485)" fill="#BE9502"/>
</svg>
